<mxfile host="app.diagrams.net" modified="2022-02-16T07:48:19.655Z" agent="5.0 (Windows NT 10.0; Win64; x64) AppleWebKit/537.36 (KHTML, like Gecko) Chrome/98.0.4758.102 Safari/537.36" etag="US5ApJkhL9oVw_sBmfWS" version="16.5.6" type="github">
  <diagram id="I7RKM3X8-WUXlgiCIFTA" name="Page-1">
    <mxGraphModel dx="1534" dy="1320" grid="1" gridSize="10" guides="1" tooltips="1" connect="1" arrows="1" fold="1" page="1" pageScale="2" pageWidth="827" pageHeight="1169" math="0" shadow="0">
      <root>
        <mxCell id="0" />
        <mxCell id="1" parent="0" />
        <mxCell id="phDlmsQMXLzlwBYmkHIe-23" value="Presentation" style="fillColor=none;strokeColor=#5A6C86;dashed=1;verticalAlign=top;fontStyle=0;fontColor=#5A6C86;" parent="1" vertex="1">
          <mxGeometry x="729" y="680" width="351" height="250" as="geometry" />
        </mxCell>
        <mxCell id="phDlmsQMXLzlwBYmkHIe-24" value="Business" style="fillColor=none;strokeColor=#5A6C86;dashed=1;verticalAlign=top;fontStyle=0;fontColor=#5A6C86;" parent="1" vertex="1">
          <mxGeometry x="729" y="410" width="351" height="230" as="geometry" />
        </mxCell>
        <mxCell id="phDlmsQMXLzlwBYmkHIe-26" value="view.py" style="text;html=1;align=center;verticalAlign=middle;resizable=0;points=[];autosize=1;strokeColor=none;fillColor=none;labelBorderColor=none;labelBackgroundColor=#EDEDED;fontSize=25;" parent="phDlmsQMXLzlwBYmkHIe-24" vertex="1">
          <mxGeometry x="60.99565217391303" y="151.00369458128083" width="100" height="40" as="geometry" />
        </mxCell>
        <mxCell id="phDlmsQMXLzlwBYmkHIe-43" value="③" style="edgeStyle=orthogonalEdgeStyle;rounded=0;orthogonalLoop=1;jettySize=auto;html=1;fontSize=25;" parent="phDlmsQMXLzlwBYmkHIe-24" source="phDlmsQMXLzlwBYmkHIe-29" target="phDlmsQMXLzlwBYmkHIe-26" edge="1">
          <mxGeometry relative="1" as="geometry" />
        </mxCell>
        <mxCell id="phDlmsQMXLzlwBYmkHIe-29" value="urls.py" style="text;html=1;align=center;verticalAlign=middle;resizable=0;points=[];autosize=1;strokeColor=none;fillColor=none;labelBorderColor=none;labelBackgroundColor=#EDEDED;fontSize=25;" parent="phDlmsQMXLzlwBYmkHIe-24" vertex="1">
          <mxGeometry x="65.99608695652174" y="40.00024485656332" width="90" height="40" as="geometry" />
        </mxCell>
        <mxCell id="phDlmsQMXLzlwBYmkHIe-52" style="edgeStyle=orthogonalEdgeStyle;rounded=0;orthogonalLoop=1;jettySize=auto;html=1;fontSize=25;startArrow=none;startFill=0;" parent="phDlmsQMXLzlwBYmkHIe-24" source="phDlmsQMXLzlwBYmkHIe-30" target="phDlmsQMXLzlwBYmkHIe-26" edge="1">
          <mxGeometry relative="1" as="geometry" />
        </mxCell>
        <mxCell id="phDlmsQMXLzlwBYmkHIe-30" value="forms.py" style="text;html=1;align=center;verticalAlign=middle;resizable=0;points=[];autosize=1;strokeColor=none;fillColor=none;labelBorderColor=none;labelBackgroundColor=#EDEDED;fontSize=25;" parent="phDlmsQMXLzlwBYmkHIe-24" vertex="1">
          <mxGeometry x="193.44110163567734" y="151.0014285714286" width="110" height="40" as="geometry" />
        </mxCell>
        <mxCell id="phDlmsQMXLzlwBYmkHIe-25" value="Database" style="fillColor=none;strokeColor=#5A6C86;dashed=1;verticalAlign=top;fontStyle=0;fontColor=#5A6C86;" parent="1" vertex="1">
          <mxGeometry x="1110" y="410" width="230" height="230" as="geometry" />
        </mxCell>
        <mxCell id="phDlmsQMXLzlwBYmkHIe-54" style="edgeStyle=orthogonalEdgeStyle;rounded=0;jumpSize=14;orthogonalLoop=1;jettySize=auto;html=1;entryX=1.069;entryY=0.5;entryDx=0;entryDy=0;entryPerimeter=0;fontSize=25;startArrow=none;startFill=0;endSize=6;" parent="1" source="phDlmsQMXLzlwBYmkHIe-31" target="phDlmsQMXLzlwBYmkHIe-30" edge="1">
          <mxGeometry relative="1" as="geometry">
            <Array as="points">
              <mxPoint x="1220" y="581" />
            </Array>
          </mxGeometry>
        </mxCell>
        <mxCell id="phDlmsQMXLzlwBYmkHIe-31" value="MySQL" style="text;html=1;align=center;verticalAlign=middle;resizable=0;points=[];autosize=1;strokeColor=none;fillColor=none;labelBorderColor=none;labelBackgroundColor=#EDEDED;fontSize=25;" parent="1" vertex="1">
          <mxGeometry x="1170" y="500" width="100" height="40" as="geometry" />
        </mxCell>
        <mxCell id="phDlmsQMXLzlwBYmkHIe-50" value="②" style="edgeStyle=orthogonalEdgeStyle;rounded=0;orthogonalLoop=1;jettySize=auto;html=1;fontSize=25;startArrow=none;startFill=0;" parent="1" source="phDlmsQMXLzlwBYmkHIe-32" target="phDlmsQMXLzlwBYmkHIe-29" edge="1">
          <mxGeometry x="-0.0345" relative="1" as="geometry">
            <Array as="points">
              <mxPoint x="770" y="470" />
              <mxPoint x="770" y="470" />
            </Array>
            <mxPoint x="1" as="offset" />
          </mxGeometry>
        </mxCell>
        <mxCell id="phDlmsQMXLzlwBYmkHIe-32" value="nginx.config" style="text;html=1;align=center;verticalAlign=middle;resizable=0;points=[];autosize=1;strokeColor=none;fillColor=none;labelBorderColor=none;labelBackgroundColor=#EDEDED;fontSize=25;" parent="1" vertex="1">
          <mxGeometry x="500" y="450" width="150" height="40" as="geometry" />
        </mxCell>
        <mxCell id="phDlmsQMXLzlwBYmkHIe-35" value="Client" style="sketch=0;outlineConnect=0;fontColor=#232F3E;gradientColor=none;fillColor=#232F3D;strokeColor=none;dashed=0;verticalLabelPosition=bottom;verticalAlign=top;align=center;html=1;fontSize=12;fontStyle=0;aspect=fixed;pointerEvents=1;shape=mxgraph.aws4.users;labelBackgroundColor=#EDEDED;labelBorderColor=none;" parent="1" vertex="1">
          <mxGeometry x="190" y="490" width="78" height="78" as="geometry" />
        </mxCell>
        <mxCell id="phDlmsQMXLzlwBYmkHIe-37" value="①" style="edgeStyle=orthogonalEdgeStyle;html=1;endArrow=block;elbow=vertical;startArrow=none;endFill=1;strokeColor=#545B64;rounded=0;fontSize=25;entryX=-0.027;entryY=0.475;entryDx=0;entryDy=0;entryPerimeter=0;endSize=6;jumpSize=14;" parent="1" target="phDlmsQMXLzlwBYmkHIe-32" edge="1">
          <mxGeometry width="100" relative="1" as="geometry">
            <mxPoint x="280" y="510" as="sourcePoint" />
            <mxPoint x="470" y="510" as="targetPoint" />
            <Array as="points">
              <mxPoint x="330" y="510" />
              <mxPoint x="330" y="469" />
            </Array>
          </mxGeometry>
        </mxCell>
        <mxCell id="phDlmsQMXLzlwBYmkHIe-49" value="④" style="edgeStyle=orthogonalEdgeStyle;rounded=0;orthogonalLoop=1;jettySize=auto;html=1;fontSize=25;startArrow=none;startFill=0;" parent="1" source="phDlmsQMXLzlwBYmkHIe-26" edge="1">
          <mxGeometry relative="1" as="geometry">
            <mxPoint x="280" y="550" as="targetPoint" />
            <Array as="points">
              <mxPoint x="330" y="576" />
              <mxPoint x="330" y="550" />
            </Array>
          </mxGeometry>
        </mxCell>
        <mxCell id="phDlmsQMXLzlwBYmkHIe-27" value="templates" style="text;html=1;align=center;verticalAlign=middle;resizable=0;points=[];autosize=1;strokeColor=none;fillColor=none;labelBorderColor=none;labelBackgroundColor=#EDEDED;fontSize=25;" parent="1" vertex="1">
          <mxGeometry x="930" y="730.0033193277311" width="120" height="40" as="geometry" />
        </mxCell>
        <mxCell id="phDlmsQMXLzlwBYmkHIe-51" style="edgeStyle=orthogonalEdgeStyle;rounded=0;orthogonalLoop=1;jettySize=auto;html=1;fontSize=25;startArrow=none;startFill=0;" parent="1" source="phDlmsQMXLzlwBYmkHIe-27" target="phDlmsQMXLzlwBYmkHIe-26" edge="1">
          <mxGeometry relative="1" as="geometry" />
        </mxCell>
        <mxCell id="OWBP5CDyAbr9O-reL2hk-2" value="Proxy Server" style="fillColor=none;strokeColor=#5A6C86;dashed=1;verticalAlign=top;fontStyle=0;fontColor=#5A6C86;" vertex="1" parent="1">
          <mxGeometry x="350" y="410" width="351" height="230" as="geometry" />
        </mxCell>
      </root>
    </mxGraphModel>
  </diagram>
</mxfile>
